<svg width="54" height="54" viewBox="0 0 54 54" fill="none" xmlns="http://www.w3.org/2000/svg">
<path fill-rule="evenodd" clip-rule="evenodd" d="M0.333008 27.0002C0.333008 12.2726 12.2721 0.333496 26.9997 0.333496C34.0721 0.333496 40.8549 3.14302 45.8559 8.14396C50.8568 13.145 53.6663 19.9278 53.6663 27.0002C53.6663 41.7278 41.7273 53.6669 26.9997 53.6669C12.2721 53.6669 0.333008 41.7278 0.333008 27.0002ZM22.1198 38.4136L37.6664 28.7069C38.2482 28.3343 38.6001 27.6911 38.6001 27.0002C38.6001 26.3094 38.2482 25.6661 37.6664 25.2936L22.0664 15.5869C21.452 15.1995 20.6758 15.1757 20.0388 15.5246C19.4018 15.8736 19.004 16.5405 18.9998 17.2669V36.7336C18.9912 37.4776 19.3963 38.1649 20.0514 38.5176C20.7065 38.8704 21.5033 38.8303 22.1198 38.4136Z" fill="white"/>
</svg>
