<svg width="33" height="31" viewBox="0 0 33 31" fill="none" xmlns="http://www.w3.org/2000/svg">
<path d="M15.7929 4.0957V4.09675C15.776 4.12583 12.2955 10.1297 7.95067 17.46C3.59532 24.8081 0 30.6911 0 30.6911L12.3315 30.637L12.3323 30.6369L12.3297 30.6464C18.3172 30.5304 23.7182 26.5939 25.3119 20.6458C25.8102 18.7864 25.8853 16.9147 25.5964 15.126C24.8043 9.85873 20.9149 5.57496 15.7929 4.0957Z" fill="black"/>
<path d="M22.6078 0.30957V0.310614C22.591 0.339693 19.1104 6.34355 14.7656 13.6739C10.4103 21.022 6.81494 26.9049 6.81494 26.9049L19.1464 26.8509L19.1472 26.8507L19.1446 26.8603C25.1321 26.7443 30.5331 22.8078 32.1269 16.8597C32.6251 15.0003 32.7003 13.1286 32.4113 11.3398C31.6192 6.0726 27.7299 1.78883 22.6078 0.30957Z" fill="#10F2C5"/>
</svg>
