<svg width="19" height="18" viewBox="0 0 19 18" fill="none" xmlns="http://www.w3.org/2000/svg">
<path fill-rule="evenodd" clip-rule="evenodd" d="M9.3335 0C4.36495 0 0.333496 4.03145 0.333496 9C0.333496 13.9686 4.36495 18 9.3335 18C14.2923 18 18.3335 13.9686 18.3335 9C18.3335 4.03145 14.2923 0 9.3335 0ZM15.2782 4.14859C16.3519 5.45662 16.9962 7.1258 17.0157 8.9317C16.7619 8.8829 14.2239 8.3655 11.6665 8.6876C11.6079 8.5607 11.5591 8.4241 11.5005 8.2874C11.3443 7.9165 11.1687 7.5358 10.9929 7.1746C13.8237 6.0228 15.1122 4.36334 15.2782 4.14859ZM9.3335 1.32755C11.2858 1.32755 13.0721 2.05966 14.429 3.26031C14.2923 3.45553 13.1307 5.00759 10.3975 6.03253C9.1383 3.71909 7.7424 1.82538 7.5277 1.53254C8.1035 1.39588 8.7088 1.32755 9.3335 1.32755ZM6.06346 2.04989C6.26844 2.32321 7.635 4.22668 8.9138 6.49131C5.32157 7.448 2.14912 7.4284 1.80747 7.4284C2.3053 5.04664 3.91593 3.06507 6.06346 2.04989ZM1.64153 9.0098C1.64153 8.9317 1.64153 8.8536 1.64153 8.7755C1.97341 8.7852 5.70226 8.8341 9.5385 7.6822C9.763 8.1117 9.968 8.551 10.1632 8.9902C10.0656 9.0195 9.9582 9.0488 9.8606 9.0781C5.89749 10.3568 3.78903 13.8514 3.61333 14.1442C2.39315 12.7874 1.64153 10.9816 1.64153 9.0098ZM9.3335 16.692C7.5569 16.692 5.91702 16.0868 4.61875 15.0716C4.75541 14.7885 6.31721 11.782 10.6513 10.269C10.6708 10.2592 10.6806 10.2592 10.7001 10.2495C11.7836 13.051 12.2229 15.4034 12.34 16.077C11.4127 16.4772 10.3975 16.692 9.3335 16.692ZM13.6187 15.3742C13.5407 14.9056 13.1307 12.6605 12.1252 9.898C14.5363 9.5173 16.6448 10.1421 16.9084 10.23C16.5765 12.3677 15.3465 14.2126 13.6187 15.3742Z" fill="black"/>
</svg>
