<svg width="19" height="18" viewBox="0 0 19 18" fill="none" xmlns="http://www.w3.org/2000/svg">
<path fill-rule="evenodd" clip-rule="evenodd" d="M2.3335 0H16.3335C17.4381 0 18.3335 0.89543 18.3335 2V16C18.3335 17.1046 17.4381 18 16.3335 18H2.3335C1.22893 18 0.333496 17.1046 0.333496 16V2C0.333496 0.89543 1.22893 0 2.3335 0ZM5.3335 15C5.60964 15 5.8335 14.7761 5.8335 14.5V7.5C5.8335 7.2239 5.60964 7 5.3335 7H3.8335C3.55736 7 3.3335 7.2239 3.3335 7.5V14.5C3.3335 14.7761 3.55736 15 3.8335 15H5.3335ZM4.5835 6C3.75507 6 3.0835 5.32843 3.0835 4.5C3.0835 3.67157 3.75507 3 4.5835 3C5.41193 3 6.0835 3.67157 6.0835 4.5C6.0835 5.32843 5.41193 6 4.5835 6ZM14.8335 15C15.1096 15 15.3335 14.7761 15.3335 14.5V9.9C15.366 8.3108 14.1911 6.95452 12.6135 6.76C11.5105 6.65925 10.4418 7.1744 9.8335 8.1V7.5C9.8335 7.2239 9.6096 7 9.3335 7H7.8335C7.5574 7 7.3335 7.2239 7.3335 7.5V14.5C7.3335 14.7761 7.5574 15 7.8335 15H9.3335C9.6096 15 9.8335 14.7761 9.8335 14.5V10.75C9.8335 9.9216 10.5051 9.25 11.3335 9.25C12.1619 9.25 12.8335 9.9216 12.8335 10.75V14.5C12.8335 14.7761 13.0574 15 13.3335 15H14.8335Z" fill="black"/>
</svg>
