<svg width="19" height="16" viewBox="0 0 19 16" fill="none" xmlns="http://www.w3.org/2000/svg">
<path d="M18.3062 2.7174C17.8418 3.33692 17.2804 3.87733 16.6437 4.31776C16.6437 4.47959 16.6437 4.64142 16.6437 4.81225C16.6488 7.7511 15.4749 10.5691 13.3852 12.6345C11.2954 14.6999 8.46458 15.8399 5.52743 15.7989C3.82937 15.8046 2.15305 15.4169 0.629796 14.6661C0.547656 14.6302 0.494686 14.549 0.494996 14.4593V14.3604C0.494996 14.2313 0.599606 14.1267 0.728646 14.1267C2.3978 14.0716 4.0074 13.4929 5.32972 12.4724C3.81891 12.4419 2.45957 11.5469 1.83398 10.1707C1.80239 10.0956 1.81222 10.0093 1.85995 9.9432C1.90767 9.8771 1.98638 9.8407 2.06763 9.8471C2.5268 9.8932 2.99056 9.8505 3.43358 9.7212C1.76577 9.375 0.512586 7.9904 0.333236 6.2957C0.326866 6.2144 0.363296 6.1357 0.429376 6.0879C0.495446 6.0402 0.581616 6.0303 0.656756 6.062C1.10432 6.2595 1.58747 6.3635 2.07662 6.3676C0.615216 5.40846 -0.016014 3.58405 0.539926 1.92622C0.597316 1.76513 0.735186 1.64612 0.902876 1.61294C1.07056 1.57975 1.24334 1.63728 1.3577 1.76439C3.32977 3.86325 6.03942 5.11396 8.91528 5.25279C8.84168 4.95885 8.80548 4.65676 8.80748 4.35372C8.83438 2.76472 9.81758 1.34921 11.2968 0.769872C12.7759 0.190542 14.4583 0.562032 15.5564 1.71044C16.3048 1.56785 17.0284 1.31645 17.7041 0.964212C17.7536 0.933312 17.8164 0.933312 17.8659 0.964212C17.8968 1.01373 17.8968 1.07652 17.8659 1.12604C17.5386 1.87552 16.9857 2.50412 16.2843 2.92419C16.8985 2.85296 17.5019 2.70807 18.0816 2.49264C18.1304 2.45942 18.1945 2.45942 18.2433 2.49264C18.2842 2.51134 18.3148 2.54711 18.3269 2.59042C18.339 2.63373 18.3314 2.68018 18.3062 2.7174Z" fill="black"/>
</svg>
