<svg width="32" height="33" viewBox="0 0 32 33" fill="none" xmlns="http://www.w3.org/2000/svg">
<path d="M25.3336 16.167V16.8336C25.3336 17.2018 25.0352 17.5003 24.667 17.5003H17.0003V25.167C17.0003 25.5351 16.7018 25.8336 16.3336 25.8336H15.667C15.2988 25.8336 15.0003 25.5351 15.0003 25.167V17.5003H7.33366C6.96547 17.5003 6.66699 17.2018 6.66699 16.8336V16.167C6.66699 15.7988 6.96547 15.5003 7.33366 15.5003H15.0003V7.83365C15.0003 7.46546 15.2988 7.16699 15.667 7.16699H16.3336C16.7018 7.16699 17.0003 7.46546 17.0003 7.83365V15.5003H24.667C25.0352 15.5003 25.3336 15.7988 25.3336 16.167Z" fill="black"/>
</svg>
